# xmcd CD database file
#
# Track frame offsets:
#	150
#	13472
#	26090
#	40650
#	55687
#	69925
#	85227
#	105117
#	119935
#	130075
#	143387
#	157920
#	169040
#	184520
#
# Disc length: 2649 seconds
#
# Revision: 2
# Processed by: cddbd v1.5.2PL0 Copyright (c) Steve Scherf et al.
# Submitted via: CDex 1.70beta2
#
DISCID=ab0a570e
DTITLE=Blue Sky Boys - Blue Sky Boys
DYEAR=1976
DGENRE=Bluegrass
TTITLE0=Don't This Road Look Rough And Rocky
TTITLE1=Green Grow The Lilacs
TTITLE2=The Lawson Family Tragedy
TTITLE3=You Could Be A Millionaire
TTITLE4=Curley Headed Baby
TTITLE5=If I Could Hear My Mother Pray Again
TTITLE6=Tramp On The Street
TTITLE7=Searching For A Soldier's Grave
TTITLE8=Just A Strand From A Yellow Curl
TTITLE9=Unloved And Unclaimed
TTITLE10=Let Me Be Your Salty Dog
TTITLE11=My Main Trial
TTITLE12=What Does The Deep Sea Say
TTITLE13=When I Take My Vacation In Heaven
EXTD=YEAR: 1976
EXTT0=
EXTT1=
EXTT2=
EXTT3=
EXTT4=
EXTT5=
EXTT6=
EXTT7=
EXTT8=
EXTT9=
EXTT10=
EXTT11=
EXTT12=
EXTT13=
PLAYORDER=
